<svg xmlns="http://www.w3.org/2000/svg" viewBox="0 0 512 415.07"><defs><style>.cls-1{fill:#fff;}</style></defs><title>icon__map</title><g id="Warstwa_2" data-name="Warstwa 2"><g id="Layer_1" data-name="Layer 1"><path class="cls-1" d="M0,351c1.28-2.31,2.66-4.57,3.84-6.93q44.55-89,89.06-178.1c.89-1.77,1.81-3.52,3.05-5.94,1.53,1.44,2.81,2.59,4,3.81,18.51,18.49,37.09,36.91,55.43,55.57,3.34,3.4,5.5,4.06,9.79,1.15C194,201,223.07,181.85,251.92,162.4c3.17-2.14,5.17-2,8.25.08,28.59,19.25,57.39,38.2,85.91,57.55,4.6,3.12,7.67,3.5,10.91-1.15a21.65,21.65,0,0,1,2.93-2.76l15.36,30.06c-5.68,2.93-4.12,7.67-3.16,12.46Q383.25,314,394.24,369.31c.29,1.46.73,2.89,1.25,4.9l73.18-36.57c-.88-1.88-1.6-3.5-2.39-5.09-8.25-16.53-16.59-33-24.65-49.63a8.8,8.8,0,0,1-.07-6.75c5.08-10.58,10.57-21,16.32-32.19,1.3,2.34,2.21,3.84,3,5.41q24.21,48.43,48.42,96.87c.81,1.62,1.82,3.14,2.73,4.7v1q-62.64,31.4-125.35,62.67c-1.64.81-4.5.39-6.28-.49Q320.5,384.45,260.8,354.41a9.43,9.43,0,0,0-9.6,0q-59.69,30.06-119.57,59.73c-1.78.88-4.64,1.31-6.28.49Q62.59,383.48,0,352,0,351.47,0,351Zm150.87,17a12.26,12.26,0,0,0,1.82-.41c28.13-14,56.22-28.17,84.41-42.07,3-1.49,2.92-3.53,2.91-6q0-52.72,0-105.44v-3.79c-.89.07-1.27,0-1.5.14-20.93,13.9-41.88,27.78-62.7,41.83-1.4.95-2.36,3.15-2.73,4.93q-7.53,36.64-14.81,73.33C155.8,342.83,153.39,355.19,150.87,368Zm210,.13a19.12,19.12,0,0,0-.12-2.41q-10.9-54.56-21.92-109.09a8.84,8.84,0,0,0-3.47-5c-20-13.5-40.08-26.85-60.16-40.21A23.33,23.33,0,0,0,272,210c0,37.36,0,74.16.16,110.95,0,1.65,2,4,3.7,4.83,26.85,13.6,53.8,27,80.73,40.45C357.86,366.87,359.19,367.4,360.83,368.13Zm-256-153.89L43.21,337.58l73.43,36.69c8.16-40.65,16.2-80.6,24.09-120.58a6.22,6.22,0,0,0-1.38-4.81C128.18,237.46,116.84,226.21,104.87,214.24Z"/><path class="cls-1" d="M415.92,256.12c-9.5-18.58-18.6-36.33-27.67-54.1-14.75-28.9-29.39-57.86-44.24-86.71C319.91,68.47,350.76,8.41,402.87.93c46.72-6.71,86.83,23.53,92.75,70.31a73.76,73.76,0,0,1-7.33,43.24q-35.21,69.46-70.69,138.78C417.25,254,416.8,254.64,415.92,256.12Zm.35-224a47.83,47.83,0,1,0-.54,95.66c26.39,0,48-21.23,48.1-47.31C463.92,53.8,442.65,32.18,416.27,32.14Z"/></g></g></svg>