<svg xmlns="http://www.w3.org/2000/svg" viewBox="0 0 200 113.47"><defs><style>.cls-1{fill:#fff;}</style></defs><title>icon_owl</title><g id="Warstwa_2" data-name="Warstwa 2"><g id="Layer_1" data-name="Layer 1"><path class="cls-1" d="M0,69.36V61.3c.14-.54.31-1.08.43-1.62.52-2.44.88-4.93,1.55-7.33A45.72,45.72,0,0,1,9.49,37.39a1.24,1.24,0,0,0,.19-1C9.35,35.3,9,34.18,8.54,33.07a59.16,59.16,0,0,0-6.38-12c-.64-1-1.44-1.82-2.16-2.73v-.32q15.19,0,30.39,0a3.46,3.46,0,0,0,1.72-.45A107.8,107.8,0,0,1,47,10.06a125,125,0,0,1,27.4-7.83A138,138,0,0,1,90.64.41C92,.34,93.29.14,94.62,0h10.44a3,3,0,0,0,.55.15c3.71.32,7.44.54,11.13,1s7.5,1,11.2,1.71a118,118,0,0,1,17.27,4.73,110,110,0,0,1,20.48,9.68,3.68,3.68,0,0,0,2,.56q14.81,0,29.63,0c.74,0,1.49.09,2.47.15l-1.41,2a57.93,57.93,0,0,0-8,15.89,1.89,1.89,0,0,0,.31,1.87,46,46,0,0,1,9.16,24A45,45,0,0,1,195,86.32a48.49,48.49,0,0,1-26.55,23.73,51.58,51.58,0,0,1-57.32-14.14c-.44-.51-.67-.58-1.09,0-2.55,3.7-5.13,7.37-7.71,11-.8,1.15-1.62,2.29-2.53,3.57L89.21,95.4l-.65.65c-1.12,1.16-2.18,2.39-3.36,3.49a50.47,50.47,0,0,1-27.43,13.17,51.27,51.27,0,0,1-23.09-1.78A49.91,49.91,0,0,1,15,99.49a47.76,47.76,0,0,1-10.82-15A44.1,44.1,0,0,1,.41,71,11.94,11.94,0,0,0,0,69.36Zm149.66,34.4c20.82.11,39.86-15.49,40.14-38,.25-20.41-16.33-37.46-38.33-38.35-22.3-.91-40.85,15.72-41.47,37.1C109.38,85.63,126.75,103.44,149.66,103.76ZM90,65.44c.07-21.23-18.29-38.27-40-38.22S10.64,44.07,10.23,64.56c-.43,21.54,17.66,38.69,39.24,39C72.1,103.86,90,86.36,90,65.44ZM100,59a47.81,47.81,0,0,1,15.92-28.84c8.84-7.77,19.37-11.84,31.32-12.7C126,8.8,103.83,7.06,81.13,9.81a111.19,111.19,0,0,0-29,7.46c12.12.74,22.76,4.8,31.75,12.64A47.68,47.68,0,0,1,100,59Z"/><path class="cls-1" d="M150,41.33c13.45,0,24.54,10.6,24.6,23.38.06,13.4-11.46,24.44-25.77,23.92C136.06,88.17,125,78.14,125,64.93S136.46,41.07,150,41.33Zm16,23.7c.07-8.47-7.28-15.59-16.3-15.53-8.73.06-16.05,7-16,15.48s7.28,15.39,16.08,15.46S165.93,73.51,165.95,65Z"/><path class="cls-1" d="M49.49,41.32c13.36-.17,24.57,10.29,24.75,23.21.2,13.68-11.18,23.68-23.78,24.1C36,89.12,24.76,78,24.72,65.1,24.68,51.74,36.06,41.18,49.49,41.32Zm-.07,39.12c8.5,0,15.77-6.34,16.2-14.64a15.72,15.72,0,0,0-15.2-16.28c-9.21-.38-16.86,6.3-17.09,15.08C33.1,73.06,40.13,80.28,49.42,80.44Z"/><path class="cls-1" d="M149.85,57.14a7.82,7.82,0,1,1,0,15.63c-4.77-.07-8.27-3.49-8.21-8A8,8,0,0,1,149.85,57.14Z"/><path class="cls-1" d="M41.24,65c0-4.55,3.58-7.92,8.4-7.92a8,8,0,0,1,8.15,8c0,4.32-3.77,7.79-8.43,7.79A8,8,0,0,1,41.24,65Z"/></g></g></svg>