<?xml version="1.0" encoding="utf-8"?>
<!-- Generator: Adobe Illustrator 21.1.0, SVG Export Plug-In . SVG Version: 6.00 Build 0)  -->
<svg version="1.1" id="Layer_1" xmlns="http://www.w3.org/2000/svg" xmlns:xlink="http://www.w3.org/1999/xlink" x="0px" y="0px"
	 viewBox="0 0 310.5 263.1" style="enable-background:new 0 0 310.5 263.1;" xml:space="preserve">
<style type="text/css">
	.st0{fill:#A6A6A6;}
</style>
<title>search icon</title>
<g>
	<title>Layer 1</title>
	<path id="path12423" class="st0" d="M21.3,45.6C-14.8,95-3.9,165.1,45.5,201.1c41.9,30.6,98.6,27.3,136.9-4.4l86.9,61.5
		c12,8.5,28.3,5.5,36.5-6.6c8.3-12.1,5.4-28.6-6.5-37.1l-85.5-60.4c19.4-46.4,5.3-102.1-37-133C127.3-14.8,57.4-3.9,21.3,45.6
		L21.3,45.6z M57.6,72c21.8-29.8,62.9-36.3,92.7-14.5c29.8,21.8,36.3,62.9,14.5,92.7c-21.8,29.8-62.9,36.3-92.7,14.5
		C42.2,143,35.8,101.8,57.6,72z"/>
</g>
</svg>
