<svg id="Layer_1" data-name="Layer 1" xmlns="http://www.w3.org/2000/svg" viewBox="0 0 124.63 118.48"><title>icon__house</title><path d="M8,58.68c15.54,3.25,30.37,6.1,45.06,9.57,4.93,1.17,7.26.06,9.69-4.34,6.9-12.51,14.39-24.69,22-37.62,8.87,10.34,17.43,20.21,25.81,30.23.81,1,.78,2.82.79,4.27.09,10.66,0,21.33.19,32,0,2.87-.65,4.55-3.53,5.64-6.05,2.28-12,4.92-18.74,7.75V67.82C82,70.87,75.56,73.36,69.37,76.29c-.92.43-1.2,2.9-1.21,4.43-.11,10-.05,20-.08,30,0,5-5.9,9.23-10.61,7.28-15.67-6.49-31.26-13.19-46.85-19.9-1-.45-2.49-1.71-2.5-2.61C8,83.41,8,71.32,8,58.68Z"/><path d="M83.56,18.33C75,32.78,66.73,46.39,58.93,60.29c-2.41,4.3-4.6,5.7-9.68,4.47C34.72,61.24,20,58.43,5.38,55.32,3.8,55,2.25,54.48,0,53.86c1-1.74,1.65-3.18,2.54-4.46C10.63,37.79,18.65,26.14,27,14.72a8.62,8.62,0,0,1,5.95-3.08c11.63-.29,23.26-.14,35.83-.14L67.75,0H79.56L78,11.73c7.19-2.15,9.62,3,12.87,6.8q15.5,18,30.9,36c.93,1.09,1.78,2.26,2.85,3.61-4.4,1.31-7.09.11-9.78-3.13C104.78,42.84,94.38,31,83.56,18.33Z"/></svg>