<?xml version="1.0" encoding="utf-8"?>
<!-- Generator: Adobe Illustrator 21.1.0, SVG Export Plug-In . SVG Version: 6.00 Build 0)  -->
<svg version="1.1" id="Warstwa_1" xmlns="http://www.w3.org/2000/svg" xmlns:xlink="http://www.w3.org/1999/xlink" x="0px" y="0px"
	 viewBox="0 0 240 116.3" style="enable-background:new 0 0 240 116.3;" xml:space="preserve">
<style type="text/css">
	.st0{fill:#FFFFFF;}
</style>
<title>Campi Ya Kanzi</title>
<g id="Warstwa_2">
	<g id="Warstwa_2-2">
		<g id="Layer_1">
			<path class="st0" d="M189.5,0.3c0.1,0.1,0.2,0.2,0.3,0.2c2.1,0.3,3.5,1.4,3.7,3.6c0.2,2.6-0.1,5-2.6,6.5c-0.3,0.2-0.5,0.6-0.5,1
				c0.6,2,1.2,4,1.8,6.1c0.5,1.9,5.6,4,7.9,3.2c0.2-0.1,0.4-0.3,0.6-0.5c0.4-1.3,1.4-1.4,2.5-1.3c6.9,0.6,13.6-1,20.4-1.6
				c0.7-0.1,1-0.3,1.1-1.1c0.3-1.9,1.4-2.8,3.2-2.5c3.8,0.5,7.6,1,11.4,1.4c0.2,0.1,0.5,0.2,0.7,0.3c-1.9,1.2-3.5,2.4-5.3,3.3
				c-2.4,1.2-5,2.2-7.8,1.5c-0.6,0-1.2-0.3-1.6-0.8c-0.5-0.6-1.3-0.9-2.1-0.7c-4.1,0.4-8.2,0.9-12.3,1.3c-0.4,0-0.7,0.1-1.1,0.1
				c-1.3,0.1-2.6,0-3.3,1.5c-0.1,0.1-0.2,0.3-0.3,0.3c-2.3,1.2-2.8,3.2-2.7,5.7c0,2.6-0.3,5.2-0.7,7.7c-0.1,0.7-0.4,1.5-0.8,2.1
				c-0.5,1-1.1,1.8-2.3,1.8c-1.2,0-2.3-0.7-2.7-1.9c-0.7-1.9-1.3-3.8-2-5.6c-0.2-0.5-0.4-1-0.8-1.4c-0.3,0.5-0.5,1.1-0.6,1.7
				c-0.2,2.3-0.5,4.6-0.6,6.9c0.1,0.5,0.4,1,0.9,1.2c5.5,2.8,11,5.5,16.5,8.3c3.9,2,7.6,4.4,11.1,7.1c1.5,1.2,3.8,1.5,5.8,2.2
				c2.2,0.7,4.4,1.3,6.6,2c0.3,0.1,0.7,0.2,0.8,0.5c0.3,0.4,0.4,0.8,0.5,1.2c-0.4,0.1-0.7,0.4-1.1,0.4l-12.3-0.6
				c-0.3,0-0.5,0-0.8,0.1c0,0.1-0.1,0.2-0.1,0.3c2.1,0.6,4.3,1.3,6.5,2c-0.1,0.5-0.3,0.9-0.4,1.5c2.1,0.4,4.1,0.7,6.1,1.1l2.7,0.6
				c0.7,0.2,1.4,0.4,1.2,1.4s-0.5,1.7-1.6,1.7c-1.5,0-3-0.1-4.6-0.2c-2.2-0.1-4.4-0.2-6.6-0.2c1.3,1.1,2.8,1.9,4.5,2.2
				c0.2,1.8-0.4,2.5-2,2.5h-4.2c0,0.2,0,0.4-0.1,0.5c1.7,0.3,3.4,0.7,5.1,1c0.4,2-0.9,3.9-2.9,4.3c-0.3,0.1-0.5,0.1-0.8,0.1
				c-4.2,0.1-8.5,0-12.7,0.5c-4,0.5-8.1,0.7-12.2,0.6c-2-0.1-3.9-0.4-5.9-0.7c-1.1-0.1-2-0.9-2.1-2c-0.8-3.7-0.9-7.6-0.4-11.4
				c0.8-5.9,1.6-11.8,1.3-17.8c-0.1-2-0.5-4-1-5.9c-0.8-3.6-0.4-7.2-0.1-10.7c0.3-3.1,0.8-6.1,1.1-9.2c0.1-0.7,0-1.4-0.1-2.1
				c-0.2-1.1-0.8-1.2-1.8-0.8c-2.1,0.9-4.1,1.7-6.2,2.4c-0.6,0.2-1.3,0.2-1.9,0.1c-0.5-0.1-1.3-0.5-1.4-0.9
				c-0.1-0.6,0.1-1.2,0.5-1.7c1.1-1.3,2.4-2.4,3.8-3.4c1.7-1.1,1.6-2.6,1.4-4.3l-0.2-0.2c-2.7,0.2-4-1.1-3.7-4.1
				c0.1-1.2,0.2-2.5,0.4-3.7c0.4-2.5,2.2-4.4,4.6-5C187.9,0.2,188.7,0.3,189.5,0.3z M200.1,34.4h0.4c0.2-0.6,0.4-1.2,0.6-1.8
				c0.3-2.5,0.4-4.9,0.7-7.4c0.2-1.3-0.8-2-1.2-3c-0.2-0.2-0.4-0.3-0.7-0.2c-1.2,0.1-2.4,0.3-3.8,0.5
				C197.4,26.5,198.8,30.4,200.1,34.4z"/>
			<path class="st0" d="M88.1,79.6L73.2,82c-1.1,0-2.1,0-3.2-0.2c-5.8-0.2-11.6-0.5-17.4-0.6c-1.5,0-2.9,0.7-4.4,0.9
				c-1,0.2-2,0.1-3-0.1c-2.7-0.9-5.3-0.1-7.9,0.3c-2.8,0.4-5.6,0.6-8.4,0.7c-6.4,0-12.9,0-19.3-0.2c-2.4-0.1-4.8-0.4-7.3-0.7
				c-1.5-0.2-1.7-0.5-1.7-2v-5.2c-0.1-0.8,0.4-1.5,1.1-1.6h0.1c0.3-0.1,0.5-0.1,0.8-0.2c1-0.3,2.5,0.1,2.4-1.8c0-0.2,0.4-0.5,0.8-1
				c-1.1-0.6-2.2-1-3.4-1.3c-1.2-0.2-1.4-0.8-1.1-2c0.7,0,1.4-0.1,2.2-0.1c12.3-0.1,24.6-0.1,37-0.2c2.3,0,4.6-0.3,6.9-0.8
				c2.2-0.5,4.2-1.4,6.4-2.1c3.7-1.2,7.6-1.8,11.5-1.8c1.5-0.1,3-0.2,4.5-0.5v-0.4c-0.1,0-0.2-0.1-0.4-0.1
				c-4.2,0.1-8.4,0.1-12.6,0.2c-0.5,0-1.1,0.1-1.5,0.4c-1.1,0.7-2.5,0.8-3.7,0.4c-3.9-1-8.1-0.8-11.9,0.7c-4.9,2-10,1.9-15.1,1.4
				s-10.5-0.9-15.8-1.4c-2.4-0.2-4.7-0.7-7.1-1c-0.8-0.1-1.3-0.5-1.1-1.3v-0.1c0-3.4,0-3.4,3.2-4.5c0.3-0.1,0.7-0.2,1-0.4
				c-1-0.5-2-1-2.9-1.5S1.1,53,1.5,52.3c0.9-1.5,1.7-3.2,2.5-4.9c-1-0.5-1.8-0.8-2.6-1.3c-0.3-0.2-0.8-0.6-0.8-0.9
				c-0.1-1.3-0.1-2.5,0-3.8c0-0.4,0.5-0.8,0.9-1c1.8-1.1,3.5-2.3,5.1-3.6c-1.6,0.5-3.3,1-5.1,1.5c-0.2-0.9-0.3-1.8-0.5-2.6
				c0-0.3,0-0.5-0.1-0.8c-1.1-2.6,0-4.2,2.3-5.5C5,28.3,7,27.5,9,27c3.8-0.7,7.5-1.6,11.1-2.8c2.5-0.8,4.7-2.4,6.9-3.7
				c6.6-3.8,13.1-7.7,19.7-11.4c1.2-0.5,2.4-0.9,3.6-1.2c2.7-0.8,5.4-1.6,8-2.3c3.5-0.9,7.1-2,10.7-2.6c3-0.6,6.1-0.6,9.2-1
				c3.4-0.7,7-0.5,10.4,0.3c2.2,0.7,4.7,0.6,7,0.8c5.5,0.5,11.1,1,16.6,1.4c4,0.3,8,0.5,12,0.7c5.1,0.4,10.2,1.4,15.1,3.1
				c4.7,1.4,8.9,3.8,13.3,5.9c2.7,1.3,4.5,3.3,6.4,5.4c1.5,1.7,3,3.4,5.5,3.5c0.1,0,0.3,0.1,0.7,0.4c-1.1,0.3-1.9,0.6-2.7,0.8
				c-2.5,0.4-5,0.7-7.5,1c-0.6,0.2-1.2,0.4-1.8,0.7c0,0.2,0.1,0.3,0.1,0.5c0.5,0,1,0.1,1.5,0.1c4.7-0.2,9.3-1,13.8-2.3
				c3.6-0.9,7.2-1.7,10.9-1.1c1.3,0.2,1.3,0.4,1.2,1.7c-0.4,4-0.8,8-1,12.1c-0.2,3.2,0.2,6.4-0.1,9.6c-0.1,3.3,0.2,6.5,1.1,9.7
				c1,4.5,2,9.1,1.6,13.8c-0.2,1.7-0.6,3.4-1.2,5c-0.6,1.7-2.1,2.8-3.9,3c-4.8,0.6-9.7,1.3-14.5,1.9c-3.6,0.4-7.2,0.7-10.7,1.2
				c-1.6,0.2-3.2,0.6-3.8,2.5c-0.3,0.4-0.7,0.6-1.2,0.5c-1.3,0-2.5-0.2-3.8-0.4c1.2-0.3,2.5-0.1,3.1-1.6c0.4-0.6,0.3-1.4-0.3-1.8
				l-0.1-0.1c-1.6-1-3.2-2-4.8-2.8c-0.9-0.5-1.5-0.9-1-2c0.1-0.4,0.1-0.8,0.1-1.2c0-2.3-1.1-3.3-3.4-2.8c-0.2,0-0.5,0.1-0.8,0.1
				c-0.9-2.2,1.6-3.3,1.6-5.1c1.5,0.3,2.9-0.7,3.2-2.2l0,0c0.1-0.4,0.3-0.7,0.6-1c1.2-0.6,1.7-2.2,1.1-3.4c-0.1-0.1-0.2-0.3-0.3-0.4
				c-0.5-0.7-1.2-1.3-1.7-2s-1.2-1-0.6-1.9c0.1-0.1-0.2-0.6-0.4-0.7c-1.8-1-3.2-2.6-3.9-4.6c-0.5-1.4-2-2.2-3.4-1.7l-0.2,0.1
				c0.2,0.3,0.3,0.5,0.5,0.8l-3.3-0.9c0,0.1-0.1,0.2-0.1,0.4c0.6,0.5,1.2,0.9,1.8,1.4c0,0.1-0.1,0.2-0.1,0.3c-0.7-0.8-1.9-1-2.7-0.3
				c-1.5,0.8-3.1,1.6-4.5,2.4c0.2-1.8,0.5-4,0.8-6.1c0-0.3,0.3-0.5,0.6-0.7c4-2.4,8.4-4.1,13-5.2c1.9-0.4,3.9-0.3,5.8-0.6
				c1.6-0.2,3.2-0.6,4.7-1c0.3-0.1,0.7-0.5,0.7-0.7c-0.1-0.4-0.4-0.8-0.8-1c-1.1-0.5-2.2-0.9-3.3-1.4c-1.2-0.7-2.6-1.4-3.9-1.9
				c-2.1-0.7-4.3-0.9-6.4-1.7c-0.4-0.1-0.9-0.1-1.3,0c-1.7,0.3-3.4,0-5-0.7c-3-1.5-6.1-1.3-9.2-0.5c-1.4,0.4-2.9,0.3-4.1-0.5
				c-0.2-0.1-0.4-0.3-0.6-0.3c-3.4-0.3-6.2-2.6-9.6-2.7c-0.9-0.1-1.8-0.6-2.4-1.3c-1.5-1.9-3.7-3.1-6.1-3.4c-2.7-0.4-5.3-0.6-8-0.7
				c-2.9,0-5.5-1.1-8.2-1.8c-2.8-0.9-5.9-0.6-8.4,1c-2.9,1.8-6.1,2.2-9.5,2.1c-2.4,0-4.8,0.8-7.1,1.3c-0.5,0.2-1,0.6-1.2,1.1
				c0.1,0.6,0.5,1,1,1.3c3.3,1.3,6.6,2.5,9.9,3.8c2.5,1,4.9,2.1,7.3,3.2c0.5,0.2,1,0.5,1.4,0.9c-2.5,0.5-4.9,0.9-7.4,1.4
				c-0.8,0.1-1.6,0.1-2.4,0c-2.4-0.3-4.8-0.1-7.1,0.5c-1.7,0.4-3.5,0.5-5.2,0.8c-0.5,0.1-1.1,0.3-1.6,0.5c-0.3,0.1-0.6,0.4-0.6,0.6
				c0.1,0.3,0.3,0.5,0.6,0.6c0.9,0.3,1.9,0.6,2.9,0.7c2.2,0.1,4.3,0.6,6.3,1.4c1.6,0.6,3.3,1,5,1.3c0.5,0.1,1,0.3,1.4,0.6
				c1.1,0.6,2.2,1,3.4,1.5c0.4,0.2,0.9,0.3,1.4,0.1c1.1-0.8,1.9,0,2.6,0.5c2,1.2,3.2,3.4,3.3,5.7c0.2,1.7,0.4,3.4,0.8,5.1
				c0.4,2.4-0.6,3.3-3,2.9c-0.8-0.1-1.6-0.2-2.4-0.2c-0.3,0-0.5,0.1-0.8,0.1c0,0.1-0.1,0.2-0.1,0.3l2,0.6c0.5,0.1,1.1,0,1.5,0.7
				c0.5,0.5,1.1,0.7,1.8,0.7c1.7,0.1,3.3,0.1,5,0c2.2,0,4.5-0.1,6.7-0.2c0.7,0,1.4-0.1,2.1-0.2c0-0.1,0.1-0.3,0.1-0.4
				c-0.6-0.4-1.3-0.6-2-0.8c-1.3-0.2-1.7-1-1.9-2.2c-0.7-3.3-0.8-6.8-0.1-10.1c0.2-0.9,0.5-1.4,1.6-1.2c2.3,0.2,4.5,0.4,6.8,0.5
				s4.5-1,6.6-1.9c1.3-0.6,1.3-1.2-0.1-1.8c-1-0.4-2.1-0.8-3.2-1c-0.3-0.1-0.5-0.1-0.8-0.2c-2.8-1.3-5.9-2.1-9-2.2
				c0.1-0.2,0.1-0.4,0.2-0.4c1.9-1.8,4.1-3.2,6.6-4c0.4-0.1,0.9,0.2,1.3,0.3c1.1,0.4,2.2,0.6,3.4,0.8c1.9,0.1,3.8,0.7,5.3,1.9
				c0.6,0.4,1.2,0.6,1.8,0.8c0.9,0.3,1.9,0.4,2.6,1.4c0.3,0.3,0.7,0.4,1.1,0.4c0.4,0.1,0.7,0.1,1.1,0c3.8-0.7,6.4,1.1,7.9,4.3
				c1.1,2.6,2.1,5.2,2.9,7.9c0.2,0.6,0,1.4-0.5,1.8c-2,1.9-2.7,4.4-3.3,6.9c-0.6,2.7-0.6,2.9-3.4,2.9c-1.8,0.1-3.6-0.1-5.3-0.6
				c-3.6-1-7.4,0.2-9.6,3.2c-0.7,0.9-1.4,1.7-2,2.6c-1.9,3-4.7,5.3-8,6.6c-1.3,0.2-2.1,1.4-1.9,2.6C88.1,79.5,88.1,79.5,88.1,79.6z
				 M178.5,34.4c0.2,0,0.3,0,0.5-0.1v-8.6c0-0.3-0.5-0.6-0.8-0.7c-2.8-0.7-3.6-0.1-3.1,2.8v0.1C175.5,30.4,176.7,32.6,178.5,34.4z
				 M156.9,27.7c2.2,0.6,4.6,0.5,6.8-0.1c1.7-0.5,3.5-0.7,5.3-0.8c1,0.2,1.9,0.4,2.8,0.8c0.7,0.2,1.2-0.1,1.1-0.9s0.4-1.7-0.9-1.5
				c-1.7,0.2-3.5,0.4-5.2,0.8c-2.8,0.7-5.5,1.6-8.4,1.4C157.9,27.5,157.4,27.6,156.9,27.7z"/>
			<path class="st0" d="M88.1,79.6c0.5,0.1,1.2,0.5,1.4,0.3c1.7-1.4,3.6-1.5,5.7-1.1c3.3,0.6,6.6,0.8,9.8,1.5
				c1.6,0.4,3.1,1.1,4.5,2.1c1.7,1.2,4,0.8,5.1-0.9c0,0,0,0,0,0l0.2-0.2c1-1.5,1-1.5-0.3-2.9c0.7,0.2,1.3,0.3,1.9,0.5
				c2.4,0.7,4.9,0.9,7.4,0.3c1.5-0.3,3-0.2,4.4,0.4c1.9,0.7,4.2,0.5,6.3,0.6c2.2,0.1,4.4,0.6,6.4,1.6c0.6,0.3,1.2,0.9,1.5,1.5
				c-5.1-0.3-10.2-0.7-15.4-0.9c-1.8-0.1-3.7,0.1-5.4,0.7c-2.5,0.9-5.2,1.2-7.8,0.8c-5.2-0.5-10.5-1.2-15.7-1.8
				c-3-0.4-5.9-1-8.9-1.5c-0.5,0.8-0.2,1.5,0.6,2.1c1.6,1.2,3.5,1.4,5.5,1.5c1.7,0,3.4,0.1,5.1,0.5c2.2,0.6,4.3,1.5,6.4,2.5
				c1.9,0.9,2,2.8,2.3,4.6c-1.8-0.1-3.8-1.6-4.1-3.2c-0.3-2-1.7-2.7-3.2-3c-2.5-0.5-5.1-0.6-7.7-1c-1.1-0.1-2.2-0.3-3.2-0.7
				C89,83.4,87.8,81.5,88.1,79.6z"/>
			<path class="st0" d="M83.6,53v4.3c0.1,0.9-0.6,1.7-1.5,1.8h-0.2c-2.9,0.4-2.4,0.8-3.4-2.1c-0.8-2.2-1-4.5-0.8-6.8
				c0-0.5,0.3-0.9,0.7-1.1c1.5-1.3,3.1-0.9,4.8-0.2c0.2,0.2,0.4,0.6,0.4,0.9C83.6,50.7,83.7,51.8,83.6,53z"/>
			<path class="st0" d="M118.5,41.6c0.5-0.2,1.1-0.3,1.6-0.4c2.6,0.6,5.2,0.6,7.8,0c0.8-0.1,1.7-0.3,2.4,0.7c-2.6,1.4-5,2.8-7.9,3.3
				c-0.3,0-0.5,0-0.7-0.2C120.7,44,119.7,43,118.5,41.6z"/>
			<path class="st0" d="M94.7,34.4c-1.5,0.7-2.8,1.2-4,1.8c-0.6,0.2-1.1,0.5-1.6,0.8c-1.1,0.9-2.7,0.9-3.8,0c1-0.9,2.1-1.7,3.1-2.6
				c0.1-0.1,0.2-0.1,0.3-0.2c1.9-0.1,3.7-0.1,5.6-0.2C94.3,34.2,94.4,34.2,94.7,34.4z"/>
			<path class="st0" d="M74.1,45.5c2.6,0.9,5.5-1.3,8.4,0.7c-1.8,0.8-3.4,1.5-5.1,2.2c-0.2,0.1-0.6-0.1-0.8-0.3
				C75.7,47.2,74.9,46.3,74.1,45.5z"/>
			<path class="st0" d="M84.5,35.5c-2,1.2-3.9,0.9-5.7,0.6c-0.2,0-0.3-0.1-0.4-0.3c-0.7-1.4-1.7-2.7-3-3.6l3.2,0.6
				c0.1,0,0.2,0.1,0.3,0.1C79.8,35.4,82.2,35,84.5,35.5z"/>
			<path class="st0" d="M76.6,35.1c-1.6,0.5-4.4-1.4-5.7-3.7c1,0,1.9,0.1,3,0.1c0.4,0.7,0.8,1.3,1.2,1.9
				C75.5,34,76.1,34.5,76.6,35.1z"/>
			<path class="st0" d="M81.4,31.4c1.7,0.5,3.4,1.1,5.1,1.7c0.2,0.1,0.3,0.5,0.5,0.8c-0.3,0.2-0.6,0.4-0.9,0.5
				c-1.9-0.6-3.7-1.2-5.5-1.9c-0.2-0.1-0.3-0.3-0.4-0.5c0.2-0.1,0.3-0.3,0.5-0.4c0.2-0.1,0.5,0,0.7,0L81.4,31.4z"/>
			<path class="st0" d="M14.3,115.5c-1.7,0.6-3.6,0.8-5.4,0.8c-6,0-8.9-4.6-8.9-10.9c0-5.5,1.8-9.6,8.2-9.6c2,0,3.9,0.3,5.8,0.8
				l0.3,4.7h-0.8c-0.4-2.6-2.7-4.5-5.3-4.4c-4.8,0-5.2,5.1-5.2,8.2c0,3.9,0.8,9.8,7.4,9.8c1.3,0,2.7-0.3,3.9-0.8L14.3,115.5z"/>
			<path class="st0" d="M15.3,115.4c2.3,0,2.7-1,3.6-3.3l6.2-16.3h1.7l6.2,16.6c0.7,1.9,1.5,3.1,3.4,3.1v0.6h-7.8v-0.6
				c0.9,0,2.1-0.2,2.1-1c0-0.5-0.1-0.9-0.3-1.3l-1.4-3.8h-7.5l-1.3,3.6c-0.2,0.4-0.3,0.9-0.4,1.4c0,0.9,1,1.1,2.1,1.1v0.6h-6.8v-0.7
				H15.3z M22,108.2h6.7l-3.3-9.1L22,108.2z"/>
			<path class="st0" d="M36.6,115.4c1.6,0,2.6-0.2,2.6-2.5V99c0-2.2-1-2.5-2.6-2.5v-0.6h6.2l5.9,17.1h0.1l5.8-17.1h6.2v0.6
				c-1.6,0-2.6,0.2-2.6,2.5v13.9c0,2.2,1,2.5,2.6,2.5v0.6h-7.7v-0.6c1.6,0,2.6-0.2,2.6-2.5V97.7h-0.1l-6.2,18.2h-2.2L41,97.7h-0.1
				v15.2c0,2.2,1,2.5,2.6,2.5v0.6h-6.9V115.4z"/>
			<path class="st0" d="M61.6,115.4c1.6,0,2.6-0.2,2.6-2.5V99c0-2.2-1-2.5-2.6-2.5v-0.6h7.8c3.9,0,7.1,0.7,7.1,5.2
				c0,5.2-4.8,5.2-8,5.2h-1.6v6.6c0,2.2,1,2.5,2.6,2.5v0.6h-7.9V115.4z M66.9,105.2h1.6c3.1,0,5.2-0.6,5.2-4c0-3-1.6-4-4.3-4
				c-2.4,0-2.5,0.1-2.5,2.5L66.9,105.2z"/>
			<path class="st0" d="M78.4,115.4c1.6,0,2.6-0.2,2.6-2.5V99c0-2.2-1-2.5-2.6-2.5v-0.6h7.9v0.6c-1.6,0-2.6,0.2-2.6,2.5v13.9
				c0,2.2,1,2.5,2.6,2.5v0.6h-7.9V115.4z"/>
			<path class="st0" d="M101.1,115.4c1.6,0,2.6-0.2,2.6-2.5v-6.3L99,98.8c-0.6-1.5-2.1-2.4-3.7-2.2V96h8.2v0.6
				c-1.4,0-1.9,0.2-1.9,1.1c0.1,0.5,0.2,0.9,0.5,1.3l3.4,5.8L109,99c0.3-0.4,0.5-0.8,0.6-1.3c0-0.8-0.6-1-1.9-1v-0.6h7.1v0.6
				c-1.6-0.1-3,0.8-3.7,2.2l-4.7,7.8v6.3c0,2.2,1,2.5,2.6,2.5v0.6h-7.9V115.4z"/>
			<path class="st0" d="M112.1,115.4c2.3,0,2.7-1,3.6-3.3l6.2-16.3h1.7l6.2,16.6c0.7,1.9,1.5,3.1,3.4,3.1v0.6h-7.8v-0.6
				c0.9,0,2.1-0.2,2.1-1c0-0.5-0.1-0.9-0.3-1.3l-1.4-3.8h-7.5L117,113c-0.2,0.4-0.3,0.9-0.4,1.4c0,0.9,1,1.1,2.1,1.1v0.6h-6.8v-0.7
				H112.1z M118.8,108.2h6.7l-3.3-9.1L118.8,108.2z"/>
			<path class="st0" d="M142.2,115.4c1.7,0,2.6-0.2,2.6-2.5V99c0-2.2-1-2.5-2.6-2.5v-0.6h7.9v0.6c-1.6,0-2.6,0.2-2.6,2.5v6l6-6.7
				c0.3-0.3,0.6-0.7,0.7-1.1c0-0.4-0.6-0.7-1.7-0.7v-0.6h7v0.6c-1.6,0-2.7,0.4-4.3,2l-5.6,6.1l6.2,7.6c1.3,1.6,2.8,3.1,4.9,3.1v0.6
				h-8.1v-0.6c1.2,0,1.7-0.2,1.7-0.7c-0.2-0.6-0.5-1.2-1-1.7l-5.7-7h-0.1v7c0,2.2,1,2.5,2.6,2.5v0.6h-7.9L142.2,115.4L142.2,115.4z"
				/>
			<path class="st0" d="M159.9,115.4c2.3,0,2.7-1,3.6-3.3l6.2-16.3h1.7l6.2,16.6c0.7,1.9,1.5,3.1,3.4,3.1v0.6h-7.8v-0.6
				c0.9,0,2.1-0.2,2.1-1c0-0.5-0.1-0.9-0.3-1.3l-1.4-3.8h-7.5l-1.3,3.6c-0.2,0.4-0.3,0.9-0.4,1.4c0,0.9,1,1.1,2.1,1.1v0.6h-6.6
				V115.4z M166.6,108.2h6.7l-3.3-9.1L166.6,108.2z"/>
			<path class="st0" d="M181.4,115.4c1.6,0,2.6-0.2,2.6-2.5V99c0-2.2-1-2.5-2.6-2.5v-0.6h5.5l9.2,16.1h0.1V99c0-2.2-1-2.5-2.6-2.5
				v-0.6h6.9v0.6c-1.7,0-2.6,0.2-2.6,2.5v16.9h-2.2l-9.9-17.2h-0.1v14.2c0,2.2,1,2.5,2.6,2.5v0.6h-6.9V115.4z"/>
			<path class="st0" d="M202.1,114.8l10.8-17.5h-4.8c-3.3,0-4.1,0.5-4.8,2.8h-0.8l0.2-4h13.6v1.3l-10.9,17.5h5.6
				c3.5,0,4.5-0.8,4.9-3.2h0.8l-0.2,4.3H202v-1.2L202.1,114.8z"/>
			<path class="st0" d="M218.6,115.4c1.7,0,2.6-0.2,2.6-2.5V99c0-2.2-1-2.5-2.6-2.5v-0.6h7.9v0.6c-1.6,0-2.6,0.2-2.6,2.5v13.9
				c0,2.2,1,2.5,2.6,2.5v0.6h-7.9V115.4z"/>
		</g>
	</g>
</g>
</svg>
