<svg id="Layer_1" data-name="Layer 1" xmlns="http://www.w3.org/2000/svg" viewBox="0 0 384.19 384.12"><defs><style>.cls-1{fill:#fff}</style></defs><title>icon__arrows</title><path class="cls-1" d="M341.35 302.47c0-13.31-.1-25.42 0-37.52.14-13.11 9.48-22.5 21.86-22.23 11.46.24 20.73 9.12 20.8 20.66.18 30.15.25 60.3 0 90.45-.12 13.91-17.37 30.24-31.18 30.25-29.32 0-58.63.09-87.95 0A21.08 21.08 0 0 1 244 366.72c-1.78-10.61 3.67-20.44 13.59-23.87a30.07 30.07 0 0 1 9.29-1.45c11.82-.17 23.64-.07 36.42-.07-1.38-1.68-2.17-2.79-3.11-3.77q-39.48-41.42-79-82.78c-9.75-10.21-10.49-24.66-1.64-33.66 9.14-9.29 25.39-9.28 35.24 0l82.93 78.13c.84.75 1.72 1.53 3.63 3.22zM42.83 303c2.69-2.46 4.4-4 6.05-5.51l81.3-77c7.64-7.22 16.66-7.69 26.09-4.47 9 3.08 13.55 9.88 14.38 19.14.68 7.58-2.1 13.87-7.39 19.39q-39.12 40.74-78 81.69l-4.41 4.68c2 .19 3.33.41 4.67.42h31.49c14 .06 23.67 9 23.56 21.6s-9.64 21.14-23.44 21.15H35.65c-15.72 0-28.5-8.72-34.1-23.5a22.41 22.41 0 0 1-1.37-7.78Q0 309.07.12 265.33c0-12.69 8.81-22.11 20.69-22.34 12.35-.23 21.68 8.71 22 21.6.24 12.31.02 24.64.02 38.41zM42.84 76.9c0 13.48.17 25.63 0 37.77-.27 15.14-12.94 25.16-26.86 21.51C7 133.82.26 126 .2 116.57 0 86.09-.17 55.6.3 25.12.43 16.18 6.75 9.62 14 5.4A37.47 37.47 0 0 1 31.36.31C60.17-.19 89 .06 117.81.1c13.24 0 22.75 9 22.73 21.35 0 12.15-9.29 21.14-22.3 21.35-12 .19-24 .14-36 .21-.15 0-.29.11-.92.38 1 1.16 1.79 2.27 2.75 3.25q39.3 40.22 78.62 80.4c9.93 10.14 10.79 23.51 2.06 32.58s-25.42 9-34.9 0q-41.1-39.09-82.14-78.25c-1.24-1.24-2.59-2.37-4.87-4.47zM341.35 76.8c-2.47 2.33-3.91 3.66-5.32 5q-39.93 38.86-79.86 77.74a23.36 23.36 0 0 1-26.76 4.54c-8-3.73-12.8-11.86-12.26-21.11.35-6.11 3.07-11.05 7.34-15.39q39.24-39.92 78.34-80c1.23-1.26 2.38-2.6 4.15-4.53-2.42-.12-4-.26-5.58-.27-10.66 0-21.32.14-32 0-12.81-.2-22.32-9.54-22.21-21.53S256.79.14 269.67.11q44-.09 88 0c13.89 0 26.45 12.7 26.47 26.66q.07 44 0 88c0 12.55-9 22-20.9 22.25s-21.56-9.21-21.78-21.92c-.28-12.34-.11-24.65-.11-38.3z"/></svg>