<svg xmlns="http://www.w3.org/2000/svg" height="20" width="25" viewBox="0 0 44.22 32.24"><defs><style>.cls-1{fill:#aa5e16}</style></defs><title>icon__arrow--primary-color</title><g id="Warstwa_2" data-name="Warstwa 2"><g id="icon__arrow--primary-color"><path id="Arrow_Forward" data-name="Arrow Forward" class="cls-1" d="M44.22 16.12a1.37 1.37 0 0 0-.41-1L30.12.44a1.28 1.28 0 0 0-1.93 0 1.48 1.48 0 0 0 0 2.05l11.33 12.16H1.38A1.35 1.35 0 0 0 0 16.12a1.35 1.35 0 0 0 1.38 1.47h38.14L28.19 29.74a1.48 1.48 0 0 0 0 2.05 1.28 1.28 0 0 0 1.93 0L43.8 17.14a1.37 1.37 0 0 0 .42-1.02z"/></g></g></svg>