<svg xmlns="http://www.w3.org/2000/svg" viewBox="0 0 256 257"><defs><style>.cls-1{fill:#a6a6a6}</style></defs><title>icon__calendar</title><g id="Warstwa_2" data-name="Warstwa 2"><g id="Layer_1" data-name="Layer 1"><path class="cls-1" d="M231 22.94c-6.11.36-12.26.06-19 .06 0 9.12.14 17.89 0 26.65a28 28 0 0 1-56-.76V23.27h-56c0 4.3.1 8.72 0 13.13-.17 6.31.28 12.76-.93 18.88-2.74 13.87-16 23-29.91 21.61A28.07 28.07 0 0 1 44 49.65c-.18-8.64 0-17.29 0-26-9.66 0-19.13-.75-28.41.22C7.14 24.73 2.77 31.42 0 39v202c2.59 8.07 8 13.29 16 16h224c8-2.71 13.41-7.92 16-16V39c-4.1-11.94-12.65-16.78-25-16.06zm.6 209.7H24.22V101.27h207.37z"/><path class="cls-1" d="M59.9 16.48c.05 1.43.09 2.86.12 4.29 0 3.63.06 7.27.06 10.9 0 2.54 0 5.09-.05 7.63 0 1.74-.07 3.47-.13 5.21a23.92 23.92 0 0 0 .15 3.88C60.47 56 65.2 61 72 61s11.57-5 11.95-12.7a23.69 23.69 0 0 0 .14-3.78C84 43.07 84 41.64 84 40.21c0-3.63-.06-7.27-.06-10.9 0-2.54 0-5.08.05-7.62 0-1.74.07-3.48.13-5.21a23.93 23.93 0 0 0-.15-3.88C83.53 5 78.8 0 72 0S60.42 5 60 12.7a23.69 23.69 0 0 0-.1 3.78zM171.9 16.48c.05 1.43.09 2.86.12 4.29 0 3.64.06 7.28.06 10.92 0 2.54 0 5.07-.05 7.61 0 1.74-.07 3.48-.13 5.22a23.92 23.92 0 0 0 .15 3.88C172.47 56 177.2 61 184 61s11.57-5 11.95-12.7a23.69 23.69 0 0 0 .14-3.78c-.05-1.43-.09-2.86-.12-4.29 0-3.63-.06-7.27-.06-10.9 0-2.54 0-5.08.05-7.62 0-1.74.07-3.48.13-5.21a23.93 23.93 0 0 0-.15-3.88C195.53 5 190.8 0 184 0s-11.58 5-12 12.7a23.69 23.69 0 0 0-.1 3.78zM87.71 121.34H48.38v39.42h39.33zM147.65 121.4h-39.38v39.38h39.38zM207.6 121.27h-39.38v39.38h39.38zM87.66 177.39h-39.4v39.38h39.4zM108.29 216.8h39.34v-39.56h-39.34zM168.35 216.78h39.38v-39.47h-39.38z"/></g></g></svg>