<svg xmlns="http://www.w3.org/2000/svg" viewBox="0 0 626 438.2"><defs><style>.cls-1{fill:#fff}</style></defs><title>icon__mail</title><g id="Warstwa_2" data-name="Warstwa 2"><g id="Layer_1" data-name="Layer 1"><path class="cls-1" d="M0 403.06v-321c1.22-2.7 2.3-5.47 3.7-8.08 3.56-6.6 10.13-9.33 17.3-7.13A25.93 25.93 0 0 1 28.29 70c8.57 6 17.07 12.13 25.42 18.45q57.7 43.65 115.3 87.43 54.64 41.5 109.22 83.05c19.2 14.59 48.89 15.2 68.32.86 21.68-16 43-32.49 64.45-48.79q34.17-25.95 68.31-51.93c32.72-24.85 65.38-49.77 98.23-74.44 8.2-6.16 16.62-12.25 25.69-16.94 8.55-4.43 16.36-.46 20.25 8.46.85 1.95 1.68 3.91 2.52 5.86v321c-2.86 6.13-4.87 12.88-8.75 18.27-8.95 12.44-21.94 16.87-37 16.87q-233-.13-466-.06h-70c-14.11 0-26.43-4.43-34.83-16.1-4.04-5.6-6.33-12.56-9.42-18.93z"/><path class="cls-1" d="M313.15 0Q438.38 0 563.6.07a63.44 63.44 0 0 1 15.8 1.7c8.63 2.25 11 8.84 5.07 15.37-6.32 6.94-13.69 13-21.05 18.92Q518 72.4 472.31 108.37 432.2 140.11 392 171.79c-12.14 9.6-24.82 18.61-36.2 29-21 19.25-63.81 18.58-85.61.26-33.46-28.05-68.4-54.5-102.69-81.69q-54-42.8-107.85-85.72c-6.21-5-12.56-10-17.76-15.89-6.4-7.3-4-13.95 5.47-16.24A63.67 63.67 0 0 1 62.21.06Q187.68-.06 313.15 0z"/></g></g></svg>