<svg data-name="Layer 1" xmlns="http://www.w3.org/2000/svg" viewBox="0 0 136.48 110.3"><title>icon__tent</title><path d="M81.34 110.23c.49-3.8 1-7.47 1.42-11.14l4.38-34c.36-2.83.66-5.67 1.11-8.49a3.17 3.17 0 0 0-.67-2.6Q67.92 27.84 48.31 1.64C48 1.22 47.7.79 47.15 0c3.2.35 6.05.64 8.85 1l33.59 3.69c6.15.68 12.31 1.32 18.46 2.06a2.62 2.62 0 0 1 1.65 1q13.3 19.82 26.44 39.68a2.71 2.71 0 0 1 .27 1.93q-6.53 26.4-13.14 52.77a1.77 1.77 0 0 1-1.67 1.57c-12.8 2.08-25.59 4.22-38.39 6.34-.56.09-1.14.12-1.87.19z"/><path d="M27.34 55.23l-4.1 49.92-16.59-1.7C6 98.2 5.34 93.07 4.7 87.95 3.25 76.36 1.85 64.76.35 53.17c-.62-4.82-.71-4.81 2.41-8.45L39.68 1.65c.45-.52.91-1 1.47-1.65L47 7.72Q64.26 30.8 81.59 53.86a3.53 3.53 0 0 1 .76 2.81Q80.12 74.21 78 91.76q-1 8.41-2.11 16.83c-.07.52-.15 1-.25 1.71-3.32-.31-6.53-.59-9.73-.9-4.29-.41-8.57-.87-12.87-1.24-1.1-.09-1.59-.43-1.66-1.62C50.7 96 50 85.48 49.33 74.94c-.43-6.54-.86-13.09-1.33-19.71z"/></svg>