<svg id="Layer_1" xmlns="http://www.w3.org/2000/svg" viewBox="0 0 310.5 263.1"><style>.st0{fill:#a6a6a6}</style><title>search icon</title><title>Layer 1</title><path id="path12423" class="st0" d="M21.3 45.6C-14.8 95-3.9 165.1 45.5 201.1c41.9 30.6 98.6 27.3 136.9-4.4l86.9 61.5c12 8.5 28.3 5.5 36.5-6.6 8.3-12.1 5.4-28.6-6.5-37.1l-85.5-60.4c19.4-46.4 5.3-102.1-37-133-49.5-35.9-119.4-25-155.5 24.5zM57.6 72c21.8-29.8 62.9-36.3 92.7-14.5 29.8 21.8 36.3 62.9 14.5 92.7-21.8 29.8-62.9 36.3-92.7 14.5C42.2 143 35.8 101.8 57.6 72z"/></svg>