<svg id="Warstwa_1" xmlns="http://www.w3.org/2000/svg" viewBox="0 0 240 116.3"><style>.st0{fill:#fff}</style><title>Campi Ya Kanzi</title><g id="Warstwa_2"><g id="Warstwa_2-2"><g id="Layer_1"><path class="st0" d="M189.5.3c.1.1.2.2.3.2 2.1.3 3.5 1.4 3.7 3.6.2 2.6-.1 5-2.6 6.5-.3.2-.5.6-.5 1 .6 2 1.2 4 1.8 6.1.5 1.9 5.6 4 7.9 3.2.2-.1.4-.3.6-.5.4-1.3 1.4-1.4 2.5-1.3 6.9.6 13.6-1 20.4-1.6.7-.1 1-.3 1.1-1.1.3-1.9 1.4-2.8 3.2-2.5 3.8.5 7.6 1 11.4 1.4.2.1.5.2.7.3-1.9 1.2-3.5 2.4-5.3 3.3-2.4 1.2-5 2.2-7.8 1.5-.6 0-1.2-.3-1.6-.8-.5-.6-1.3-.9-2.1-.7-4.1.4-8.2.9-12.3 1.3-.4 0-.7.1-1.1.1-1.3.1-2.6 0-3.3 1.5-.1.1-.2.3-.3.3-2.3 1.2-2.8 3.2-2.7 5.7 0 2.6-.3 5.2-.7 7.7-.1.7-.4 1.5-.8 2.1-.5 1-1.1 1.8-2.3 1.8-1.2 0-2.3-.7-2.7-1.9-.7-1.9-1.3-3.8-2-5.6-.2-.5-.4-1-.8-1.4-.3.5-.5 1.1-.6 1.7-.2 2.3-.5 4.6-.6 6.9.1.5.4 1 .9 1.2 5.5 2.8 11 5.5 16.5 8.3 3.9 2 7.6 4.4 11.1 7.1 1.5 1.2 3.8 1.5 5.8 2.2 2.2.7 4.4 1.3 6.6 2 .3.1.7.2.8.5.3.4.4.8.5 1.2-.4.1-.7.4-1.1.4l-12.3-.6c-.3 0-.5 0-.8.1 0 .1-.1.2-.1.3 2.1.6 4.3 1.3 6.5 2-.1.5-.3.9-.4 1.5 2.1.4 4.1.7 6.1 1.1l2.7.6c.7.2 1.4.4 1.2 1.4s-.5 1.7-1.6 1.7c-1.5 0-3-.1-4.6-.2-2.2-.1-4.4-.2-6.6-.2 1.3 1.1 2.8 1.9 4.5 2.2.2 1.8-.4 2.5-2 2.5h-4.2c0 .2 0 .4-.1.5 1.7.3 3.4.7 5.1 1 .4 2-.9 3.9-2.9 4.3-.3.1-.5.1-.8.1-4.2.1-8.5 0-12.7.5-4 .5-8.1.7-12.2.6-2-.1-3.9-.4-5.9-.7-1.1-.1-2-.9-2.1-2-.8-3.7-.9-7.6-.4-11.4.8-5.9 1.6-11.8 1.3-17.8-.1-2-.5-4-1-5.9-.8-3.6-.4-7.2-.1-10.7.3-3.1.8-6.1 1.1-9.2.1-.7 0-1.4-.1-2.1-.2-1.1-.8-1.2-1.8-.8-2.1.9-4.1 1.7-6.2 2.4-.6.2-1.3.2-1.9.1-.5-.1-1.3-.5-1.4-.9-.1-.6.1-1.2.5-1.7 1.1-1.3 2.4-2.4 3.8-3.4 1.7-1.1 1.6-2.6 1.4-4.3l-.2-.2c-2.7.2-4-1.1-3.7-4.1.1-1.2.2-2.5.4-3.7.4-2.5 2.2-4.4 4.6-5 .7.2 1.5.3 2.3.3zm10.6 34.1h.4l.6-1.8c.3-2.5.4-4.9.7-7.4.2-1.3-.8-2-1.2-3-.2-.2-.4-.3-.7-.2-1.2.1-2.4.3-3.8.5 1.3 4 2.7 7.9 4 11.9z"/><path class="st0" d="M88.1 79.6L73.2 82c-1.1 0-2.1 0-3.2-.2-5.8-.2-11.6-.5-17.4-.6-1.5 0-2.9.7-4.4.9-1 .2-2 .1-3-.1-2.7-.9-5.3-.1-7.9.3-2.8.4-5.6.6-8.4.7-6.4 0-12.9 0-19.3-.2-2.4-.1-4.8-.4-7.3-.7-1.5-.2-1.7-.5-1.7-2v-5.2c-.1-.8.4-1.5 1.1-1.6h.1c.3-.1.5-.1.8-.2 1-.3 2.5.1 2.4-1.8 0-.2.4-.5.8-1-1.1-.6-2.2-1-3.4-1.3-1.2-.2-1.4-.8-1.1-2 .7 0 1.4-.1 2.2-.1 12.3-.1 24.6-.1 37-.2 2.3 0 4.6-.3 6.9-.8 2.2-.5 4.2-1.4 6.4-2.1 3.7-1.2 7.6-1.8 11.5-1.8 1.5-.1 3-.2 4.5-.5v-.4c-.1 0-.2-.1-.4-.1-4.2.1-8.4.1-12.6.2-.5 0-1.1.1-1.5.4-1.1.7-2.5.8-3.7.4-3.9-1-8.1-.8-11.9.7-4.9 2-10 1.9-15.1 1.4s-10.5-.9-15.8-1.4c-2.4-.2-4.7-.7-7.1-1-.8-.1-1.3-.5-1.1-1.3v-.1c0-3.4 0-3.4 3.2-4.5.3-.1.7-.2 1-.4-1-.5-2-1-2.9-1.5s-.8-.9-.4-1.6c.9-1.5 1.7-3.2 2.5-4.9-1-.5-1.8-.8-2.6-1.3-.3-.2-.8-.6-.8-.9-.1-1.3-.1-2.5 0-3.8 0-.4.5-.8.9-1 1.8-1.1 3.5-2.3 5.1-3.6-1.6.5-3.3 1-5.1 1.5-.2-.9-.3-1.8-.5-2.6 0-.3 0-.5-.1-.8-1.1-2.6 0-4.2 2.3-5.5C5 28.3 7 27.5 9 27c3.8-.7 7.5-1.6 11.1-2.8 2.5-.8 4.7-2.4 6.9-3.7 6.6-3.8 13.1-7.7 19.7-11.4 1.2-.5 2.4-.9 3.6-1.2 2.7-.8 5.4-1.6 8-2.3 3.5-.9 7.1-2 10.7-2.6 3-.6 6.1-.6 9.2-1 3.4-.7 7-.5 10.4.3 2.2.7 4.7.6 7 .8 5.5.5 11.1 1 16.6 1.4 4 .3 8 .5 12 .7 5.1.4 10.2 1.4 15.1 3.1 4.7 1.4 8.9 3.8 13.3 5.9 2.7 1.3 4.5 3.3 6.4 5.4 1.5 1.7 3 3.4 5.5 3.5.1 0 .3.1.7.4-1.1.3-1.9.6-2.7.8-2.5.4-5 .7-7.5 1-.6.2-1.2.4-1.8.7 0 .2.1.3.1.5.5 0 1 .1 1.5.1 4.7-.2 9.3-1 13.8-2.3 3.6-.9 7.2-1.7 10.9-1.1 1.3.2 1.3.4 1.2 1.7-.4 4-.8 8-1 12.1-.2 3.2.2 6.4-.1 9.6-.1 3.3.2 6.5 1.1 9.7 1 4.5 2 9.1 1.6 13.8-.2 1.7-.6 3.4-1.2 5-.6 1.7-2.1 2.8-3.9 3-4.8.6-9.7 1.3-14.5 1.9-3.6.4-7.2.7-10.7 1.2-1.6.2-3.2.6-3.8 2.5-.3.4-.7.6-1.2.5-1.3 0-2.5-.2-3.8-.4 1.2-.3 2.5-.1 3.1-1.6.4-.6.3-1.4-.3-1.8l-.1-.1c-1.6-1-3.2-2-4.8-2.8-.9-.5-1.5-.9-1-2 .1-.4.1-.8.1-1.2 0-2.3-1.1-3.3-3.4-2.8-.2 0-.5.1-.8.1-.9-2.2 1.6-3.3 1.6-5.1 1.5.3 2.9-.7 3.2-2.2.1-.4.3-.7.6-1 1.2-.6 1.7-2.2 1.1-3.4-.1-.1-.2-.3-.3-.4-.5-.7-1.2-1.3-1.7-2s-1.2-1-.6-1.9c.1-.1-.2-.6-.4-.7-1.8-1-3.2-2.6-3.9-4.6-.5-1.4-2-2.2-3.4-1.7l-.2.1c.2.3.3.5.5.8l-3.3-.9c0 .1-.1.2-.1.4.6.5 1.2.9 1.8 1.4 0 .1-.1.2-.1.3-.7-.8-1.9-1-2.7-.3-1.5.8-3.1 1.6-4.5 2.4.2-1.8.5-4 .8-6.1 0-.3.3-.5.6-.7 4-2.4 8.4-4.1 13-5.2 1.9-.4 3.9-.3 5.8-.6 1.6-.2 3.2-.6 4.7-1 .3-.1.7-.5.7-.7-.1-.4-.4-.8-.8-1-1.1-.5-2.2-.9-3.3-1.4-1.2-.7-2.6-1.4-3.9-1.9-2.1-.7-4.3-.9-6.4-1.7-.4-.1-.9-.1-1.3 0-1.7.3-3.4 0-5-.7-3-1.5-6.1-1.3-9.2-.5-1.4.4-2.9.3-4.1-.5-.2-.1-.4-.3-.6-.3-3.4-.3-6.2-2.6-9.6-2.7-.9-.1-1.8-.6-2.4-1.3-1.5-1.9-3.7-3.1-6.1-3.4-2.7-.4-5.3-.6-8-.7-2.9 0-5.5-1.1-8.2-1.8-2.8-.9-5.9-.6-8.4 1-2.9 1.8-6.1 2.2-9.5 2.1-2.4 0-4.8.8-7.1 1.3-.5.2-1 .6-1.2 1.1.1.6.5 1 1 1.3 3.3 1.3 6.6 2.5 9.9 3.8 2.5 1 4.9 2.1 7.3 3.2.5.2 1 .5 1.4.9-2.5.5-4.9.9-7.4 1.4-.8.1-1.6.1-2.4 0-2.4-.3-4.8-.1-7.1.5-1.7.4-3.5.5-5.2.8-.5.1-1.1.3-1.6.5-.3.1-.6.4-.6.6.1.3.3.5.6.6.9.3 1.9.6 2.9.7 2.2.1 4.3.6 6.3 1.4 1.6.6 3.3 1 5 1.3.5.1 1 .3 1.4.6 1.1.6 2.2 1 3.4 1.5.4.2.9.3 1.4.1 1.1-.8 1.9 0 2.6.5 2 1.2 3.2 3.4 3.3 5.7.2 1.7.4 3.4.8 5.1.4 2.4-.6 3.3-3 2.9-.8-.1-1.6-.2-2.4-.2-.3 0-.5.1-.8.1 0 .1-.1.2-.1.3l2 .6c.5.1 1.1 0 1.5.7.5.5 1.1.7 1.8.7 1.7.1 3.3.1 5 0 2.2 0 4.5-.1 6.7-.2.7 0 1.4-.1 2.1-.2 0-.1.1-.3.1-.4-.6-.4-1.3-.6-2-.8-1.3-.2-1.7-1-1.9-2.2-.7-3.3-.8-6.8-.1-10.1.2-.9.5-1.4 1.6-1.2 2.3.2 4.5.4 6.8.5s4.5-1 6.6-1.9c1.3-.6 1.3-1.2-.1-1.8-1-.4-2.1-.8-3.2-1-.3-.1-.5-.1-.8-.2-2.8-1.3-5.9-2.1-9-2.2.1-.2.1-.4.2-.4 1.9-1.8 4.1-3.2 6.6-4 .4-.1.9.2 1.3.3 1.1.4 2.2.6 3.4.8 1.9.1 3.8.7 5.3 1.9.6.4 1.2.6 1.8.8.9.3 1.9.4 2.6 1.4.3.3.7.4 1.1.4.4.1.7.1 1.1 0 3.8-.7 6.4 1.1 7.9 4.3 1.1 2.6 2.1 5.2 2.9 7.9.2.6 0 1.4-.5 1.8-2 1.9-2.7 4.4-3.3 6.9-.6 2.7-.6 2.9-3.4 2.9-1.8.1-3.6-.1-5.3-.6-3.6-1-7.4.2-9.6 3.2-.7.9-1.4 1.7-2 2.6-1.9 3-4.7 5.3-8 6.6-1.3.2-2.1 1.4-1.9 2.6v.2zm90.4-45.2c.2 0 .3 0 .5-.1v-8.6c0-.3-.5-.6-.8-.7-2.8-.7-3.6-.1-3.1 2.8v.1c.4 2.5 1.6 4.7 3.4 6.5zm-21.6-6.7c2.2.6 4.6.5 6.8-.1 1.7-.5 3.5-.7 5.3-.8 1 .2 1.9.4 2.8.8.7.2 1.2-.1 1.1-.9s.4-1.7-.9-1.5c-1.7.2-3.5.4-5.2.8-2.8.7-5.5 1.6-8.4 1.4l-1.5.3z"/><path class="st0" d="M88.1 79.6c.5.1 1.2.5 1.4.3 1.7-1.4 3.6-1.5 5.7-1.1 3.3.6 6.6.8 9.8 1.5 1.6.4 3.1 1.1 4.5 2.1 1.7 1.2 4 .8 5.1-.9l.2-.2c1-1.5 1-1.5-.3-2.9.7.2 1.3.3 1.9.5 2.4.7 4.9.9 7.4.3 1.5-.3 3-.2 4.4.4 1.9.7 4.2.5 6.3.6 2.2.1 4.4.6 6.4 1.6.6.3 1.2.9 1.5 1.5-5.1-.3-10.2-.7-15.4-.9-1.8-.1-3.7.1-5.4.7-2.5.9-5.2 1.2-7.8.8-5.2-.5-10.5-1.2-15.7-1.8-3-.4-5.9-1-8.9-1.5-.5.8-.2 1.5.6 2.1 1.6 1.2 3.5 1.4 5.5 1.5 1.7 0 3.4.1 5.1.5 2.2.6 4.3 1.5 6.4 2.5 1.9.9 2 2.8 2.3 4.6-1.8-.1-3.8-1.6-4.1-3.2-.3-2-1.7-2.7-3.2-3-2.5-.5-5.1-.6-7.7-1-1.1-.1-2.2-.3-3.2-.7-1.9-.5-3.1-2.4-2.8-4.3zM83.6 53v4.3c.1.9-.6 1.7-1.5 1.8h-.2c-2.9.4-2.4.8-3.4-2.1-.8-2.2-1-4.5-.8-6.8 0-.5.3-.9.7-1.1 1.5-1.3 3.1-.9 4.8-.2.2.2.4.6.4.9 0 .9.1 2 0 3.2zM118.5 41.6c.5-.2 1.1-.3 1.6-.4 2.6.6 5.2.6 7.8 0 .8-.1 1.7-.3 2.4.7-2.6 1.4-5 2.8-7.9 3.3-.3 0-.5 0-.7-.2-1-1-2-2-3.2-3.4zM94.7 34.4c-1.5.7-2.8 1.2-4 1.8-.6.2-1.1.5-1.6.8-1.1.9-2.7.9-3.8 0 1-.9 2.1-1.7 3.1-2.6.1-.1.2-.1.3-.2 1.9-.1 3.7-.1 5.6-.2 0 .2.1.2.4.4zM74.1 45.5c2.6.9 5.5-1.3 8.4.7-1.8.8-3.4 1.5-5.1 2.2-.2.1-.6-.1-.8-.3-.9-.9-1.7-1.8-2.5-2.6zM84.5 35.5c-2 1.2-3.9.9-5.7.6-.2 0-.3-.1-.4-.3-.7-1.4-1.7-2.7-3-3.6l3.2.6c.1 0 .2.1.3.1.9 2.5 3.3 2.1 5.6 2.6zM76.6 35.1c-1.6.5-4.4-1.4-5.7-3.7 1 0 1.9.1 3 .1.4.7.8 1.3 1.2 1.9.4.6 1 1.1 1.5 1.7zM81.4 31.4c1.7.5 3.4 1.1 5.1 1.7.2.1.3.5.5.8-.3.2-.6.4-.9.5-1.9-.6-3.7-1.2-5.5-1.9-.2-.1-.3-.3-.4-.5.2-.1.3-.3.5-.4.2-.1.5 0 .7 0v-.2zM14.3 115.5c-1.7.6-3.6.8-5.4.8-6 0-8.9-4.6-8.9-10.9 0-5.5 1.8-9.6 8.2-9.6 2 0 3.9.3 5.8.8l.3 4.7h-.8c-.4-2.6-2.7-4.5-5.3-4.4-4.8 0-5.2 5.1-5.2 8.2 0 3.9.8 9.8 7.4 9.8 1.3 0 2.7-.3 3.9-.8v1.4zM15.3 115.4c2.3 0 2.7-1 3.6-3.3l6.2-16.3h1.7l6.2 16.6c.7 1.9 1.5 3.1 3.4 3.1v.6h-7.8v-.6c.9 0 2.1-.2 2.1-1 0-.5-.1-.9-.3-1.3l-1.4-3.8h-7.5l-1.3 3.6c-.2.4-.3.9-.4 1.4 0 .9 1 1.1 2.1 1.1v.6h-6.8v-.7h.2zm6.7-7.2h6.7l-3.3-9.1-3.4 9.1zM36.6 115.4c1.6 0 2.6-.2 2.6-2.5V99c0-2.2-1-2.5-2.6-2.5v-.6h6.2l5.9 17.1h.1l5.8-17.1h6.2v.6c-1.6 0-2.6.2-2.6 2.5v13.9c0 2.2 1 2.5 2.6 2.5v.6h-7.7v-.6c1.6 0 2.6-.2 2.6-2.5V97.7h-.1l-6.2 18.2h-2.2L41 97.7h-.1v15.2c0 2.2 1 2.5 2.6 2.5v.6h-6.9v-.6zM61.6 115.4c1.6 0 2.6-.2 2.6-2.5V99c0-2.2-1-2.5-2.6-2.5v-.6h7.8c3.9 0 7.1.7 7.1 5.2 0 5.2-4.8 5.2-8 5.2h-1.6v6.6c0 2.2 1 2.5 2.6 2.5v.6h-7.9v-.6zm5.3-10.2h1.6c3.1 0 5.2-.6 5.2-4 0-3-1.6-4-4.3-4-2.4 0-2.5.1-2.5 2.5v5.5zM78.4 115.4c1.6 0 2.6-.2 2.6-2.5V99c0-2.2-1-2.5-2.6-2.5v-.6h7.9v.6c-1.6 0-2.6.2-2.6 2.5v13.9c0 2.2 1 2.5 2.6 2.5v.6h-7.9v-.6zM101.1 115.4c1.6 0 2.6-.2 2.6-2.5v-6.3L99 98.8c-.6-1.5-2.1-2.4-3.7-2.2V96h8.2v.6c-1.4 0-1.9.2-1.9 1.1.1.5.2.9.5 1.3l3.4 5.8L109 99c.3-.4.5-.8.6-1.3 0-.8-.6-1-1.9-1v-.6h7.1v.6c-1.6-.1-3 .8-3.7 2.2l-4.7 7.8v6.3c0 2.2 1 2.5 2.6 2.5v.6h-7.9v-.7zM112.1 115.4c2.3 0 2.7-1 3.6-3.3l6.2-16.3h1.7l6.2 16.6c.7 1.9 1.5 3.1 3.4 3.1v.6h-7.8v-.6c.9 0 2.1-.2 2.1-1 0-.5-.1-.9-.3-1.3l-1.4-3.8h-7.5L117 113c-.2.4-.3.9-.4 1.4 0 .9 1 1.1 2.1 1.1v.6h-6.8v-.7h.2zm6.7-7.2h6.7l-3.3-9.1-3.4 9.1zM142.2 115.4c1.7 0 2.6-.2 2.6-2.5V99c0-2.2-1-2.5-2.6-2.5v-.6h7.9v.6c-1.6 0-2.6.2-2.6 2.5v6l6-6.7c.3-.3.6-.7.7-1.1 0-.4-.6-.7-1.7-.7v-.6h7v.6c-1.6 0-2.7.4-4.3 2l-5.6 6.1 6.2 7.6c1.3 1.6 2.8 3.1 4.9 3.1v.6h-8.1v-.6c1.2 0 1.7-.2 1.7-.7-.2-.6-.5-1.2-1-1.7l-5.7-7h-.1v7c0 2.2 1 2.5 2.6 2.5v.6h-7.9v-.6z"/><path class="st0" d="M159.9 115.4c2.3 0 2.7-1 3.6-3.3l6.2-16.3h1.7l6.2 16.6c.7 1.9 1.5 3.1 3.4 3.1v.6h-7.8v-.6c.9 0 2.1-.2 2.1-1 0-.5-.1-.9-.3-1.3l-1.4-3.8h-7.5l-1.3 3.6c-.2.4-.3.9-.4 1.4 0 .9 1 1.1 2.1 1.1v.6h-6.6v-.7zm6.7-7.2h6.7l-3.3-9.1-3.4 9.1zM181.4 115.4c1.6 0 2.6-.2 2.6-2.5V99c0-2.2-1-2.5-2.6-2.5v-.6h5.5l9.2 16.1h.1V99c0-2.2-1-2.5-2.6-2.5v-.6h6.9v.6c-1.7 0-2.6.2-2.6 2.5v16.9h-2.2l-9.9-17.2h-.1v14.2c0 2.2 1 2.5 2.6 2.5v.6h-6.9v-.6zM202.1 114.8l10.8-17.5h-4.8c-3.3 0-4.1.5-4.8 2.8h-.8l.2-4h13.6v1.3l-10.9 17.5h5.6c3.5 0 4.5-.8 4.9-3.2h.8l-.2 4.3H202v-1.2h.1zM218.6 115.4c1.7 0 2.6-.2 2.6-2.5V99c0-2.2-1-2.5-2.6-2.5v-.6h7.9v.6c-1.6 0-2.6.2-2.6 2.5v13.9c0 2.2 1 2.5 2.6 2.5v.6h-7.9v-.6z"/></g></g></g></svg>